<?xml version="1.0" encoding="UTF-8" standalone="no"?>
<svg width="91.062286" height="90.641518" version="1.1" xmlns="http://www.w3.org/2000/svg">
  <path fill="#00bdff"
     d="m 83.76,6.69152 -6.08,3.12 c 7.41,14.13 2.35,34.78 -13.32,49.78 -11.34,10.88 -25.72,16.76 -45.62,16.88 v 14.17 c 23.38,0 41.11,-9.6 54.32,-22.52 19.01,-18.65 23.61,-45.43 10.7,-61.43 z"/>
  <circle
     cx="9.6800003"
     cy="50.411518"
     r="9.6800003"
     fill="#ed1e79"/>
  <path fill="#6ddc00"
     d="m 42.5,35.64152 c 5.84,-5.72 6.75,-14.11 2,-18.73 -4.75,-4.62 -13.26,-3.74 -19.1,2 -5.84,5.74 -6.74,14.11 -2,18.73 4.74,4.62 13.27,3.73 19.1,-2 z"/>
  <path fill="#00bdff"
     d="m 64.91,6.89152 c -11.2,-10.97 -33.42,-8.65 -47.93,5.58 a 36.69,36.69 0 0 0 -8.9399997,14.28 H 12.49 c 1.12,-4.22 3.92,-8.35 7.52,-11.88 10.33,-10.14 25.86,-11.87 33.83,-4.06 7.97,7.81 6.56,22.52 -3.77,32.66 -6.19,6.08 -14.44,9.19 -21.42,9 v 12.57 a 48.65,48.65 0 0 0 30.26,-12.48 c 14.94,-13.79 17.19,-34.7 6,-45.67 z"/>
</svg>
